<svg width="142" height="40" viewBox="0 0 142 40" fill="none" xmlns="http://www.w3.org/2000/svg">
<rect width="142" height="40" fill="white"/>
<rect x="0.5" y="0.5" width="141" height="39" rx="7.5" fill="#FCB13B" stroke="#FCB13B"/>
<path d="M47.5415 25L48.3817 22.4893H52.2098L53.055 25H55.0237L51.4342 14.8182H49.1572L45.5727 25H47.5415ZM48.8788 21.0078L50.256 16.9062H50.3355L51.7126 21.0078H48.8788ZM58.9866 25.1342C60.2991 25.1342 60.8908 24.3537 61.1741 23.7969H61.2835V25H63.0534V14.8182H61.2487V18.6264H61.1741C60.9007 18.0746 60.3389 17.2642 58.9916 17.2642C57.2267 17.2642 55.8396 18.6463 55.8396 21.1918C55.8396 23.7074 57.1869 25.1342 58.9866 25.1342ZM59.4888 23.6577C58.3006 23.6577 57.6741 22.6136 57.6741 21.1818C57.6741 19.7599 58.2906 18.7408 59.4888 18.7408C60.6472 18.7408 61.2835 19.7003 61.2835 21.1818C61.2835 22.6634 60.6372 23.6577 59.4888 23.6577ZM67.905 25.1342C69.2175 25.1342 69.8091 24.3537 70.0925 23.7969H70.2019V25H71.9718V14.8182H70.1671V18.6264H70.0925C69.8191 18.0746 69.2573 17.2642 67.91 17.2642C66.1451 17.2642 64.758 18.6463 64.758 21.1918C64.758 23.7074 66.1053 25.1342 67.905 25.1342ZM68.4071 23.6577C67.2189 23.6577 66.5925 22.6136 66.5925 21.1818C66.5925 19.7599 67.209 18.7408 68.4071 18.7408C69.5655 18.7408 70.2019 19.7003 70.2019 21.1818C70.2019 22.6634 69.5556 23.6577 68.4071 23.6577ZM79.3619 20.5256C79.3619 19.4219 80.0281 18.7855 80.9777 18.7855C81.9074 18.7855 82.4642 19.397 82.4642 20.4162V25H84.2639V20.1378C84.2689 18.3082 83.2249 17.2642 81.6489 17.2642C80.5054 17.2642 79.7199 17.8111 79.3719 18.6612H79.2824V17.3636H77.5622V25H79.3619V20.5256ZM89.5741 25.1491C91.354 25.1491 92.577 24.2791 92.8952 22.9517L91.2148 22.7628C90.9712 23.4091 90.3746 23.7472 89.599 23.7472C88.4357 23.7472 87.6651 22.9815 87.6501 21.674H92.9697V21.1222C92.9697 18.4425 91.3589 17.2642 89.4797 17.2642C87.2922 17.2642 85.8653 18.87 85.8653 21.2266C85.8653 23.6229 87.2723 25.1491 89.5741 25.1491ZM87.6551 20.4609C87.7098 19.4865 88.4307 18.6662 89.5045 18.6662C90.5386 18.6662 91.2347 19.4219 91.2446 20.4609H87.6551ZM99.4595 21.7884C99.4595 22.9517 98.6292 23.5284 97.8338 23.5284C96.9687 23.5284 96.392 22.9169 96.392 21.9474V17.3636H94.5923V22.2259C94.5923 24.0604 95.6363 25.0994 97.1377 25.0994C98.2812 25.0994 99.0866 24.4979 99.4346 23.6428H99.5142V25H101.259V17.3636H99.4595V21.7884ZM103.21 25H105.01V20.5107C105.01 19.5412 105.74 18.8551 106.73 18.8551C107.033 18.8551 107.411 18.9098 107.565 18.9595V17.304C107.401 17.2741 107.118 17.2543 106.919 17.2543C106.044 17.2543 105.313 17.7514 105.034 18.6364H104.955V17.3636H103.21V25ZM111.877 25.1491C114.114 25.1491 115.536 23.5732 115.536 21.2116C115.536 18.8452 114.114 17.2642 111.877 17.2642C109.64 17.2642 108.218 18.8452 108.218 21.2116C108.218 23.5732 109.64 25.1491 111.877 25.1491ZM111.887 23.7074C110.649 23.7074 110.043 22.6037 110.043 21.2067C110.043 19.8097 110.649 18.6911 111.887 18.6911C113.105 18.6911 113.712 19.8097 113.712 21.2067C113.712 22.6037 113.105 23.7074 111.887 23.7074ZM118.963 20.5256C118.963 19.4219 119.63 18.7855 120.579 18.7855C121.509 18.7855 122.066 19.397 122.066 20.4162V25H123.865V20.1378C123.87 18.3082 122.826 17.2642 121.25 17.2642C120.107 17.2642 119.321 17.8111 118.973 18.6612H118.884V17.3636H117.164V25H118.963V20.5256Z" fill="white"/>
<path d="M27 21H21V27H19V21H13V19H19V13H21V19H27V21Z" fill="white"/>
</svg>
