<svg width="40" height="40" viewBox="0 0 40 40" fill="none" xmlns="http://www.w3.org/2000/svg">
<path d="M20 10C14.48 10 10 14.48 10 20C10 25.52 14.48 30 20 30C25.52 30 30 25.52 30 20C30 14.48 25.52 10 20 10ZM21 27H19V25H21V27ZM23.07 19.25L22.17 20.17C21.45 20.9 21 21.5 21 23H19V22.5C19 21.4 19.45 20.4 20.17 19.67L21.41 18.41C21.78 18.05 22 17.55 22 17C22 15.9 21.1 15 20 15C18.9 15 18 15.9 18 17H16C16 14.79 17.79 13 20 13C22.21 13 24 14.79 24 17C24 17.88 23.64 18.68 23.07 19.25Z" fill="#979797"/>
</svg>
