<svg xmlns="http://www.w3.org/2000/svg" viewBox="0 0 498 742.57"><defs><style>.cls-1{fill:none;}.cls-2{fill:#fff;}.cls-3{fill:#f0831a;}.cls-4{fill:#f9b12f;}.cls-5{fill:#e61670;}.cls-6{fill:#e9511e;}.cls-7{fill:#39a7df;}.cls-8{fill:#ededed;}.cls-9{fill:#312f30;}</style></defs><g id="Layer_2" data-name="Layer 2"><g id="Layer_1-2" data-name="Layer 1"><rect class="cls-1" x="62" y="91.27" height="117.64"/><path class="cls-2" d="M183.47,366.44h0a10.8,10.8,0,0,0-7.58,3.09,10.43,10.43,0,0,0,0,15,10.83,10.83,0,0,0,7.61,3.08h0a11,11,0,0,0,7.64-3,10.27,10.27,0,0,0,3.21-7.5,10.39,10.39,0,0,0-3.22-7.53A10.93,10.93,0,0,0,183.47,366.44Z"/><path class="cls-2" d="M126.23,338.79a10.35,10.35,0,0,0,7.19-2.85,9.79,9.79,0,0,0,0-14.13,10.31,10.31,0,0,0-7.18-2.91h0a10.16,10.16,0,0,0-7.13,2.9,9.84,9.84,0,0,0,0,14.1,10.23,10.23,0,0,0,7.16,2.89Z"/><rect class="cls-2" x="114.44" y="521.14" width="76.19" height="11.45"/><path class="cls-3" d="M249.38,263.16H76.7a14.4,14.4,0,0,0-14.38,14.38V450.22H249.38ZM112.09,328.88a13.79,13.79,0,0,1,4.2-9.95,14.18,14.18,0,0,1,9.94-4.05h0a14.28,14.28,0,0,1,10,4,13.8,13.8,0,0,1,0,19.93,14.35,14.35,0,0,1-10,4h0a14.16,14.16,0,0,1-10-4A13.72,13.72,0,0,1,112.09,328.88Zm9.76,56.87L172.1,312l15.83,10.79-50.25,73.75Zm72,1.72a15,15,0,0,1-10.41,4.14h0a14.83,14.83,0,0,1-10.42-4.21,14.47,14.47,0,0,1,0-20.75,14.8,14.8,0,0,1,10.39-4.23h0a14.91,14.91,0,0,1,10.42,4.22,14.4,14.4,0,0,1,0,20.83Z"/><rect class="cls-2" x="114.44" y="563.83" width="76.19" height="11.45"/><rect class="cls-2" x="114.12" y="348.55" width="81.53" height="11.45" transform="translate(-225.09 282.76) rotate(-55.73)"/><polygon class="cls-2" points="321.23 387.15 346.01 362.37 370.79 387.15 378.88 379.05 354.1 354.27 378.88 329.49 370.79 321.39 346.01 346.17 321.23 321.39 313.13 329.49 337.91 354.27 313.13 379.05 321.23 387.15"/><path class="cls-4" d="M261.87,449.23l1.43-1.16c.51-.43,1-.85,1.55-1.26s1.12-.85,1.68-1.27l1.43-1.07c.52-.4,1.05-.79,1.58-1.17s1.15-.8,1.73-1.19l1.46-1,1.64-1.1c.59-.39,1.19-.75,1.79-1.12l1.49-.92,1.68-1c.59-.35,1.2-.68,1.8-1l1.58-.88c.56-.32,1.13-.64,1.7-.94s1.22-.63,1.84-.93l1.64-.83c.57-.29,1.14-.58,1.71-.85s1.29-.59,1.94-.87l1.62-.73,1.74-.77c.65-.27,1.31-.53,2-.78l1.68-.67c.58-.23,1.16-.47,1.75-.68s1.31-.47,2-.69l1.74-.6c.59-.21,1.18-.42,1.78-.61s1.35-.41,2-.61l1.75-.52c.59-.18,1.19-.36,1.78-.52s1.4-.36,2.1-.53l1.81-.45c.58-.15,1.15-.3,1.73-.43.74-.16,1.47-.31,2.21-.45l1.81-.37,1.69-.34c.78-.14,1.57-.26,2.36-.37l1.79-.28c.54-.09,1.07-.18,1.61-.25.85-.12,1.71-.21,2.57-.3l1.75-.19c.49-.06,1-.12,1.49-.16,1.06-.1,2.12-.16,3.17-.22l1.48-.1,1.2-.08c3.92-.17,7.86-.17,11.77,0l1.22.08,1.5.1c1,.06,2.09.12,3.13.22.51,0,1,.1,1.54.16l1.77.2c.83.09,1.67.18,2.5.29.55.07,1.09.16,1.64.25l1.81.28,2.31.37,1.75.35,1.82.37c.71.14,1.43.28,2.14.44l1.79.44,1.81.45c.68.17,1.36.33,2,.52s1.22.35,1.82.53l1.74.52q1,.28,2,.6t1.83.63l1.72.59,1.93.67c.61.23,1.2.47,1.8.71l1.69.67c.64.24,1.28.49,1.91.76s1.18.52,1.77.79l1.65.73,1.88.85c.59.28,1.17.58,1.75.87l1.6.81c.62.3,1.24.6,1.84.93s1.16.63,1.73.95l1.57.88,1.79,1c.56.33,1.12.68,1.67,1l1.51.93c.6.37,1.19.73,1.78,1.11s1.08.73,1.62,1.1l1.48,1c.58.39,1.16.78,1.72,1.19s1.07.78,1.59,1.17l1.43,1.07c.56.42,1.12.83,1.67,1.27s1.06.84,1.58,1.28l1.41,1.15,1.2,1h8.94V277.54a14.4,14.4,0,0,0-14.38-14.38H253.23V450.22h7.44C261.07,449.88,261.47,449.56,261.87,449.23Zm45.81-119.74L321.23,316,346,340.72,370.79,316l13.54,13.54-24.78,24.78,24.78,24.78L370.79,392.6,346,367.82,321.23,392.6l-13.55-13.55,24.78-24.78Z"/><path class="cls-5" d="M438.07,456.36c.78.77,1.51,1.51,2.22,2.24v-4.53h-4.62c.77.73,1.54,1.46,2.3,2.2Z"/><path class="cls-5" d="M254.86,455.48l1.49-1.41h-3.12v3l1-.94Z"/><path class="cls-6" d="M247.61,637.83l-.65-.74-.54-.63-.86-1-1.12-1.35-.87-1-1-1.33-.87-1.11-1-1.31-.87-1.17-1-1.34-.83-1.17-.94-1.38c-.27-.39-.54-.78-.8-1.18l-.87-1.33-.81-1.26-.85-1.37-.76-1.25-.81-1.39c-.25-.42-.5-.84-.74-1.27l-.69-1.26c-.27-.47-.53-1-.79-1.43l-.7-1.33c-.24-.46-.48-.92-.71-1.38l-.69-1.38c-.22-.46-.45-.91-.67-1.37l-.68-1.47c-.2-.43-.41-.87-.6-1.31l-.64-1.47c-.2-.44-.4-.89-.59-1.34l-.57-1.42c-.2-.47-.39-.94-.58-1.42l-.56-1.47c-.18-.46-.36-.92-.53-1.39l-.54-1.52-.48-1.36-.49-1.5c-.16-.47-.31-.94-.46-1.41l-.49-1.62c-.14-.44-.27-.88-.4-1.32l-.43-1.57c-.13-.46-.26-.92-.38-1.38l-.42-1.66c-.11-.44-.23-.88-.33-1.32l-.38-1.68-.3-1.32-.36-1.77c-.08-.42-.17-.83-.25-1.24s-.11-.6-.16-.9l-.16-.88c-.07-.42-.15-.83-.22-1.25s-.09-.61-.14-.91l-.15-1-.18-1.13c0-.33-.08-.66-.13-1l-.12-.95c-.05-.37-.1-.75-.14-1.13l-.12-1-.1-1c0-.34-.08-.69-.11-1s-.07-.83-.11-1.25l-.14-1.84c0-.49-.07-1-.09-1.46l-.1-1.65c0-.6,0-1.2-.06-1.79l-.05-1.33c0-1,0-2.08,0-3.13s0-2.08,0-3.13l.05-1.32c0-.6,0-1.2.06-1.79l.1-1.65c0-.49.05-1,.09-1.46l.06-.86.08-.92c0-.44.07-.88.11-1.32s.07-.68.11-1l.11-1c0-.34.07-.68.11-1s.09-.76.14-1.14l.12-1c.05-.33.09-.65.13-1l.18-1.14.29-1.91c.07-.42.15-.83.22-1.25l.16-.88c.05-.3.1-.6.16-.9s.16-.83.25-1.24l.36-1.78c.1-.47.21-1,.32-1.42l.36-1.57c.11-.48.24-1,.36-1.44l.39-1.54c.12-.47.26-1,.39-1.42l.42-1.53.42-1.41.47-1.53c.15-.47.3-.94.46-1.42l.49-1.49.48-1.36.54-1.53c.17-.46.35-.92.53-1.38l.56-1.47.57-1.42.58-1.42.6-1.37.63-1.44c.2-.45.41-.89.61-1.34l.67-1.44c.22-.46.45-.91.67-1.37l.69-1.38c.22-.44.45-.88.68-1.32l.73-1.4c.26-.48.52-.95.79-1.42l.7-1.27c.23-.42.48-.84.73-1.26L233,483c.25-.41.51-.82.76-1.24l.85-1.38.81-1.25.87-1.33c.26-.41.54-.8.81-1.2l.92-1.36.82-1.14,1-1.37c.27-.38.55-.75.83-1.12l1-1.36c.28-.37.57-.74.86-1.1l1.06-1.34.87-1.06,1.12-1.34.88-1,.52-.6.65-.74.92-1,.85-.93v-7H62.32V626.75A14.4,14.4,0,0,0,76.7,641.14H249.38v-1.36l-.85-.93Zm-53.29-58.69H110.75V560h83.57Zm0-42.7H110.75V517.28h83.57Z"/><path class="cls-7" d="M429.38,453.61A127.76,127.76,0,0,0,252.71,637.7c1.26,1.35,2.57,2.69,3.89,4A127.76,127.76,0,0,0,440.79,464.75,129,129,0,0,0,429.38,453.61ZM400,597c-22,0-38.26-16.3-52.59-30.68l-.69-.69-.16.17c-15.32,15.34-31.15,31.2-55.53,31.2-26.28,0-45.35-19.58-45.35-46.56,0-26.1,21-46.56,47.76-46.56,22,0,38.27,16.31,52.6,30.69l.68.69.17-.17c15.31-15.34,31.14-31.21,55.52-31.21,26.7,0,45.35,19.15,45.35,46.56C447.8,576.53,426.82,597,400,597Z"/><path class="cls-2" d="M445.48,4h-393C25.77,4,4,32.2,4,66.84V675.73c0,34.64,21.75,62.82,48.5,62.82h393c26.74,0,48.5-28.18,48.5-62.82V66.84C494,32.2,472.22,4,445.48,4ZM58,87.25H440V212.93H58ZM346,682a130.88,130.88,0,0,1-91.53-37H76.7a18.26,18.26,0,0,1-18.24-18.24V277.54A18.26,18.26,0,0,1,76.7,259.3H425.91a18.26,18.26,0,0,1,18.24,18.24V462.73a131.42,131.42,0,0,1,33.48,87.69C477.63,623,418.58,682,346,682Z"/><path class="cls-2" d="M402.45,507.88c-22.71,0-37.94,15.27-52.68,30l-3,3-3.53-3.54c-13.77-13.82-29.38-29.5-49.75-29.5-24.53,0-43.74,18.69-43.74,42.54,0,24.65,17.38,42.54,41.33,42.54,22.71,0,37.95-15.26,52.68-30l3-3,3.54,3.55C364.07,577.29,379.68,593,400,593c24.53,0,43.75-18.68,43.75-42.54C443.79,525.38,426.79,507.88,402.45,507.88Zm-67.28,45c-11.31,11.62-25.38,26.08-42.89,26.08-16,0-27.6-12-27.6-28.5a28.53,28.53,0,0,1,28.5-28.49c15.32,0,26.79,11.28,36.91,21.23,2.07,2,4,4,6,5.79l1.52,1.4Zm65.17,26.08c-15.32,0-26.78-11.28-36.9-21.24-2.07-2-4-4-6-5.78l-1.52-1.4,2.43-2.49c11.31-11.62,25.38-26.08,42.9-26.08,16,0,27.59,12,27.59,28.49A28.53,28.53,0,0,1,400.34,578.92Z"/><path class="cls-7" d="M401.25,525.94c-15.61,0-28.87,13.42-39.58,24.42,1.51,1.43,3,2.91,4.59,4.46,10,9.87,20.41,20.08,34.08,20.08a24.51,24.51,0,0,0,24.48-24.48C424.82,536.24,414.91,525.94,401.25,525.94Z"/><path class="cls-7" d="M293.18,525.94a24.51,24.51,0,0,0-24.48,24.48c0,14.19,9.92,24.48,23.58,24.48,15.6,0,28.87-13.41,39.57-24.41-1.5-1.43-3-2.91-4.58-4.46C317.23,536.15,306.86,525.94,293.18,525.94Z"/><path d="M444.15,277.54a18.26,18.26,0,0,0-18.24-18.24H76.7a18.26,18.26,0,0,0-18.24,18.24V626.75A18.26,18.26,0,0,0,76.7,645H254.48A130.88,130.88,0,0,0,346,682c72.57,0,131.62-59,131.62-131.62a131.42,131.42,0,0,0-33.48-87.69ZM253.23,263.16H425.91a14.4,14.4,0,0,1,14.38,14.38V450.22h-8.94l-1.2-1-1.41-1.15c-.52-.44-1-.87-1.58-1.28s-1.11-.85-1.67-1.27l-1.43-1.07c-.52-.39-1.05-.79-1.59-1.17s-1.14-.8-1.72-1.19l-1.48-1c-.54-.37-1.08-.75-1.62-1.1s-1.18-.74-1.78-1.11l-1.51-.93c-.55-.35-1.11-.7-1.67-1l-1.79-1-1.57-.88c-.57-.32-1.15-.65-1.73-.95s-1.22-.63-1.84-.93l-1.6-.81c-.58-.29-1.16-.59-1.75-.87l-1.88-.85-1.65-.73c-.59-.27-1.17-.54-1.77-.79s-1.27-.52-1.91-.76l-1.69-.67c-.6-.24-1.19-.48-1.8-.71l-1.93-.67-1.72-.59q-.92-.33-1.83-.63t-2-.6l-1.74-.52c-.6-.18-1.21-.37-1.82-.53s-1.36-.35-2-.52l-1.81-.45L375,422c-.71-.16-1.43-.3-2.14-.44l-1.82-.37-1.75-.35-2.31-.37-1.81-.28c-.55-.09-1.09-.18-1.64-.25-.83-.11-1.67-.2-2.5-.29l-1.77-.2c-.51-.06-1-.12-1.54-.16-1-.1-2.09-.16-3.13-.22l-1.5-.1-1.22-.08c-3.91-.17-7.85-.17-11.77,0l-1.2.08-1.48.1c-1.05.06-2.11.12-3.17.22-.5,0-1,.1-1.49.16l-1.75.19c-.86.09-1.72.18-2.57.3-.54.07-1.07.16-1.61.25l-1.79.28c-.79.11-1.58.23-2.36.37l-1.69.34-1.81.37c-.74.14-1.47.29-2.21.45-.58.13-1.15.28-1.73.43l-1.81.45c-.7.17-1.4.34-2.1.53s-1.19.34-1.78.52l-1.75.52c-.68.2-1.36.39-2,.61s-1.19.4-1.78.61l-1.74.6c-.66.22-1.32.44-2,.69s-1.17.45-1.75.68l-1.68.67c-.66.25-1.32.51-2,.78l-1.74.77-1.62.73c-.65.28-1.3.57-1.94.87s-1.14.56-1.71.85l-1.64.83c-.62.3-1.23.61-1.84.93s-1.14.62-1.7.94l-1.58.88c-.6.33-1.21.66-1.8,1l-1.68,1-1.49.92c-.6.37-1.2.73-1.79,1.12l-1.64,1.1-1.46,1c-.58.39-1.16.78-1.73,1.19s-1.06.77-1.58,1.17l-1.43,1.07c-.56.42-1.13.83-1.68,1.27s-1,.83-1.55,1.26l-1.43,1.16c-.4.33-.8.65-1.2,1h-7.44ZM440.29,454.07v4.53c-.71-.73-1.44-1.47-2.22-2.24l-.1-.09c-.76-.74-1.53-1.47-2.3-2.2Zm-187.06,0h3.12l-1.49,1.41-.67.66-1,.94ZM62.32,277.54A14.4,14.4,0,0,1,76.7,263.16H249.38V450.22H62.32Zm187.06,363.6H76.7a14.4,14.4,0,0,1-14.38-14.39V454.07H249.38v7l-.85.93-.92,1-.65.74-.52.6-.88,1-1.12,1.34-.87,1.06-1.06,1.34c-.29.36-.58.73-.86,1.1l-1,1.36c-.28.37-.56.74-.83,1.12l-1,1.37-.82,1.14-.92,1.36c-.27.4-.55.79-.81,1.2l-.87,1.33-.81,1.25-.85,1.38c-.25.42-.51.83-.76,1.24l-.81,1.4c-.25.42-.5.84-.73,1.26l-.7,1.27c-.27.47-.53.94-.79,1.42l-.73,1.4c-.23.44-.46.88-.68,1.32l-.69,1.38c-.22.46-.45.91-.67,1.37l-.67,1.44c-.2.45-.41.89-.61,1.34l-.63,1.44-.6,1.37-.58,1.42-.57,1.42-.56,1.47c-.18.46-.36.92-.53,1.38l-.54,1.53-.48,1.36-.49,1.49c-.16.48-.31.95-.46,1.42L220,512.4l-.42,1.41-.42,1.53c-.13.47-.27.95-.39,1.42l-.39,1.54c-.12.48-.25,1-.36,1.44l-.36,1.57c-.11.47-.22,1-.32,1.42l-.36,1.78c-.09.41-.17.83-.25,1.24s-.11.6-.16.9l-.16.88c-.07.42-.15.83-.22,1.25l-.29,1.91-.18,1.14c0,.33-.08.65-.13,1l-.12,1c-.05.38-.1.76-.14,1.14s-.08.68-.11,1l-.11,1c0,.34-.08.68-.11,1s-.08.88-.11,1.32l-.08.92-.06.86c0,.48-.07,1-.09,1.46l-.1,1.65c0,.59,0,1.19-.06,1.79l-.05,1.32c0,1.05,0,2.09,0,3.13s0,2.09,0,3.13l.05,1.33c0,.59,0,1.19.06,1.79l.1,1.65c0,.49.05,1,.09,1.46l.14,1.84c0,.42.07.84.11,1.25s.07.7.11,1l.1,1,.12,1c0,.38.09.76.14,1.13l.12.95c.05.33.09.66.13,1l.18,1.13.15,1c0,.3.09.6.14.91s.15.83.22,1.25l.16.88c.05.3.1.6.16.9s.17.82.25,1.24l.36,1.77.3,1.32.38,1.68c.1.44.22.88.33,1.32l.42,1.66c.12.46.25.92.38,1.38l.43,1.57c.13.44.26.88.4,1.32l.49,1.62c.15.47.3.94.46,1.41l.49,1.5.48,1.36.54,1.52c.17.47.35.93.53,1.39l.56,1.47c.19.48.38,1,.58,1.42l.57,1.42c.19.45.39.9.59,1.34l.64,1.47c.19.44.4.88.6,1.31l.68,1.47c.22.46.45.91.67,1.37l.69,1.38c.23.46.47.92.71,1.38l.7,1.33c.26.48.52,1,.79,1.43l.69,1.26c.24.43.49.85.74,1.27l.81,1.39.76,1.25.85,1.37.81,1.26.87,1.33c.26.4.53.79.8,1.18l.94,1.38.83,1.17,1,1.34.87,1.17,1,1.31.87,1.11,1,1.33.87,1,1.12,1.35.86,1,.54.63.65.74.92,1,.85.93Zm224.39-90.72A127.76,127.76,0,0,1,256.6,641.69c-1.32-1.3-2.63-2.64-3.89-4A127.76,127.76,0,0,1,429.38,453.61a129,129,0,0,1,11.41,11.14A127.48,127.48,0,0,1,473.77,550.42Z"/><path d="M172.1,312l-50.25,73.75,15.83,10.79,50.25-73.75Zm-35.44,79.19-9.46-6.45,45.92-67.38,9.46,6.45Z"/><path d="M321.23,392.6,346,367.82l24.78,24.78,13.54-13.55-24.78-24.78,24.78-24.78L370.79,316,346,340.72,321.23,316l-13.55,13.54,24.78,24.78-24.78,24.78Zm-8.1-63.11,8.1-8.09L346,346.17l24.78-24.77,8.09,8.09L354.1,354.27l24.78,24.78-8.09,8.1L346,362.37l-24.78,24.78-8.1-8.1,24.78-24.78Z"/><path d="M110.75,579.14h83.57V560H110.75Zm3.69-15.31h76.19v11.45H114.44Z"/><path d="M110.75,536.44h83.57V517.28H110.75Zm3.69-15.3h76.19v11.45H114.44Z"/><path d="M445.48,0h-393C23.56,0,0,30,0,66.84V675.73c0,36.85,23.56,66.84,52.52,66.84h393c29,0,52.52-30,52.52-66.84V66.84C498,30,474.44,0,445.48,0ZM494,675.73c0,34.64-21.76,62.82-48.5,62.82h-393C25.77,738.55,4,710.37,4,675.73V66.84C4,32.2,25.77,4,52.52,4h393C472.22,4,494,32.2,494,66.84Z"/><path d="M440,87.25H58V212.93H440Zm-4,121.66H62V91.27H436Z"/><path class="cls-8" d="M62,208.91H436V91.27H62Zm296.06-25.36-1,.61c-.65.4-1.3.76-1.95,1.11H335.71c-1.3,0-2.59,0-3.89,0-.65-.34-1.29-.7-1.94-1.11l-1-.62c-.33-.23-.65-.44-1-.7.33-.26.65-.47,1-.7l1-.62c.65-.41,1.29-.77,1.94-1.11,1.3.05,2.59,0,3.89,0h19.43c.65.35,1.3.7,1.95,1.11l1,.61c.32.23.65.43,1,.68C358.71,183.12,358.38,183.32,358.06,183.55Zm45.57-28-1,.62c-.65.41-1.3.77-1.94,1.11-1.3-.05-2.6,0-3.89,0H377.39c-.64-.35-1.29-.71-1.94-1.11l-1-.61c-.32-.23-.65-.43-1-.68.32-.25.65-.45,1-.68l1-.61c.65-.41,1.3-.76,1.94-1.11h19.44c1.29,0,2.59,0,3.89,0,.64.34,1.29.7,1.94,1.11l1,.62c.33.23.65.44,1,.7C404.28,155.08,404,155.29,403.63,155.52Zm1.76-28.68c.23-.29.44-.58.7-.87.26.29.46.58.7.87l.62.88c.41.58.76,1.17,1.11,1.75-.06,1.17,0,2.34,0,3.51v17.53c-.35.59-.71,1.17-1.11,1.75l-.61.88c-.23.29-.43.59-.68.88-.25-.29-.45-.59-.68-.88l-.61-.88c-.41-.58-.76-1.16-1.11-1.75V133c0-1.17,0-2.34,0-3.51.34-.58.7-1.17,1.11-1.75Zm-30.91-3.08,1-.61c.65-.41,1.3-.76,1.94-1.12h19.44c1.29,0,2.59,0,3.89,0,.64.34,1.29.7,1.94,1.1l1,.62c.33.24.65.45,1,.71-.32.25-.64.46-1,.7l-1,.62c-.65.4-1.3.76-1.94,1.1-1.3,0-2.6,0-3.89,0H377.39c-.64-.36-1.29-.71-1.94-1.12l-1-.61c-.32-.22-.65-.43-1-.67C373.83,124.19,374.16,124,374.48,123.76Zm-4.72,4,.62-.88c.24-.29.45-.58.7-.87.26.29.47.58.7.87l.62.88c.41.58.77,1.17,1.11,1.75-.05,1.17,0,2.34,0,3.51v17.53c-.36.59-.71,1.17-1.12,1.75l-.61.88c-.22.29-.43.59-.68.88-.24-.29-.45-.59-.68-.88l-.61-.88c-.4-.58-.76-1.16-1.11-1.75V133c0-1.17,0-2.34,0-3.51C369,128.89,369.35,128.3,369.76,127.72Zm0,28.85.62-.87c.24-.3.45-.59.7-.88.26.29.47.58.7.88l.62.87c.41.59.77,1.17,1.11,1.76-.05,1.16,0,2.33,0,3.5v17.53c-.36.59-.71,1.17-1.12,1.76l-.61.87c-.22.3-.43.59-.68.88-.24-.29-.45-.58-.68-.88l-.61-.87c-.4-.59-.76-1.17-1.11-1.76V161.83c0-1.17,0-2.34,0-3.5C369,157.74,369.35,157.16,369.76,156.57Zm-40.85-32.81,1-.61c.65-.41,1.29-.76,1.94-1.12h19.44c1.29,0,2.59,0,3.88,0,.65.34,1.3.7,1.95,1.1l1,.62c.32.24.65.45,1,.71-.32.25-.65.46-1,.7l-1,.62c-.65.4-1.3.76-1.95,1.1-1.29,0-2.59,0-3.88,0H331.82c-.65-.36-1.29-.71-1.94-1.12l-1-.61c-.33-.22-.65-.43-1-.67C328.26,124.19,328.58,124,328.91,123.76Zm-4.72,4,.62-.88c.23-.29.44-.58.7-.87.26.29.47.58.7.87l.62.88c.41.58.77,1.17,1.11,1.75-.05,1.17,0,2.34,0,3.51v17.53c-.35.59-.71,1.17-1.11,1.75l-.61.88c-.23.29-.43.59-.68.88-.25-.29-.45-.59-.68-.88l-.61-.88c-.41-.58-.76-1.16-1.11-1.75V133c0-1.17,0-2.34,0-3.51C323.42,128.89,323.78,128.3,324.19,127.72Zm0,28.85.62-.87c.23-.3.44-.59.7-.88.26.29.47.58.7.88l.62.87c.41.59.77,1.17,1.11,1.76-.05,1.16,0,2.33,0,3.5v17.53c-.35.59-.71,1.17-1.11,1.76l-.61.87c-.23.3-.43.59-.68.88-.25-.29-.45-.58-.68-.88l-.61-.87c-.41-.59-.76-1.17-1.11-1.76V161.83c0-1.17,0-2.34,0-3.5C323.42,157.74,323.78,157.16,324.19,156.57Zm-20.83-28.85.62-.88c.23-.29.44-.58.7-.87.25.29.46.58.7.87l.62.88c.41.58.76,1.17,1.11,1.75-.06,1.17,0,2.34,0,3.51v17.53c-.35.59-.71,1.17-1.11,1.75l-.61.88c-.23.29-.44.59-.68.88-.25-.29-.46-.59-.68-.88l-.61-.88c-.41-.58-.76-1.16-1.12-1.75V133c0-1.17,0-2.34,0-3.51C302.59,128.89,303,128.3,303.36,127.72Zm0,28.85.62-.87c.23-.3.44-.59.7-.88.25.29.46.58.7.88l.62.87c.41.59.76,1.17,1.11,1.76-.06,1.16,0,2.33,0,3.5v17.53c-.35.59-.71,1.17-1.11,1.76l-.61.87c-.23.3-.44.59-.68.88-.25-.29-.46-.58-.68-.88l-.61-.87c-.41-.59-.76-1.17-1.12-1.76V161.83c0-1.17,0-2.34,0-3.5C302.59,157.74,303,157.16,303.36,156.57Z"/><path d="M183.47,362.42h0a14.8,14.8,0,0,0-10.39,4.23,14.47,14.47,0,0,0,0,20.75,14.83,14.83,0,0,0,10.42,4.21h0a15,15,0,0,0,10.41-4.14,14.4,14.4,0,0,0,0-20.83A14.91,14.91,0,0,0,183.47,362.42Zm7.64,22.14a11,11,0,0,1-7.64,3h0a10.83,10.83,0,0,1-7.61-3.08,10.43,10.43,0,0,1,0-15,10.8,10.8,0,0,1,7.58-3.09h0a10.93,10.93,0,0,1,7.63,3.09,10.39,10.39,0,0,1,3.22,7.53A10.27,10.27,0,0,1,191.11,384.56Z"/><path d="M126.23,342.81a14.35,14.35,0,0,0,10-4,13.8,13.8,0,0,0,0-19.93,14.28,14.28,0,0,0-10-4h0a14.18,14.18,0,0,0-9.94,4.05,13.85,13.85,0,0,0,0,19.85,14.16,14.16,0,0,0,10,4Zm-10.12-13.93a9.83,9.83,0,0,1,3-7.08,10.16,10.16,0,0,1,7.13-2.9h0a10.31,10.31,0,0,1,7.18,2.91,9.79,9.79,0,0,1,0,14.13,10.35,10.35,0,0,1-7.19,2.85h0a10.23,10.23,0,0,1-7.16-2.89A9.75,9.75,0,0,1,116.11,328.88Z"/><path d="M402.45,503.86c-24.38,0-40.21,15.87-55.52,31.21l-.17.17-.68-.69c-14.33-14.38-30.56-30.69-52.6-30.69-26.78,0-47.76,20.46-47.76,46.56,0,27,19.07,46.56,45.35,46.56,24.38,0,40.21-15.86,55.53-31.2l.16-.17.69.69C361.78,580.68,378,597,400,597c26.78,0,47.76-20.45,47.76-46.56C447.8,523,429.15,503.86,402.45,503.86ZM400,593c-20.36,0-36-15.67-49.74-29.49l-3.54-3.55-3,3c-14.73,14.76-30,30-52.68,30-23.95,0-41.33-17.89-41.33-42.54,0-23.85,19.21-42.54,43.74-42.54,20.37,0,36,15.68,49.75,29.5l3.53,3.54,3-3c14.74-14.76,30-30,52.68-30,24.34,0,41.34,17.5,41.34,42.54C443.79,574.28,424.57,593,400,593Z"/><path d="M330.09,543.16c-10.12-9.95-21.59-21.23-36.91-21.23a28.53,28.53,0,0,0-28.5,28.49c0,16.52,11.61,28.5,27.6,28.5,17.51,0,31.58-14.46,42.89-26.08l2.43-2.49-1.52-1.4C334.12,547.13,332.16,545.2,330.09,543.16ZM292.28,574.9c-13.66,0-23.58-10.29-23.58-24.48a24.51,24.51,0,0,1,24.48-24.48c13.68,0,24.05,10.21,34.09,20.09,1.57,1.55,3.08,3,4.58,4.46C321.15,561.49,307.88,574.9,292.28,574.9Z"/><path d="M401.25,521.93c-17.52,0-31.59,14.46-42.9,26.08l-2.43,2.49,1.52,1.4c2,1.82,3.93,3.74,6,5.78,10.12,10,21.58,21.24,36.9,21.24a28.53,28.53,0,0,0,28.5-28.5C428.84,533.91,417.24,521.93,401.25,521.93Zm-.91,53c-13.67,0-24-10.21-34.08-20.08-1.58-1.55-3.08-3-4.59-4.46,10.71-11,24-24.42,39.58-24.42,13.66,0,23.57,10.3,23.57,24.48A24.51,24.51,0,0,1,400.34,574.9Z"/><path class="cls-9" d="M368.68,133v17.53c.35.59.71,1.17,1.11,1.75l.61.88c.23.29.44.59.68.88.25-.29.46-.59.68-.88l.61-.88c.41-.58.76-1.16,1.12-1.75V133c0-1.17,0-2.34,0-3.51-.34-.58-.7-1.17-1.11-1.75l-.62-.88c-.23-.29-.44-.58-.7-.87-.25.29-.46.58-.7.87l-.62.88c-.41.58-.76,1.17-1.11,1.75C368.71,130.64,368.67,131.81,368.68,133Z"/><path class="cls-9" d="M403.69,133v17.53c.35.59.7,1.17,1.11,1.75l.61.88c.23.29.43.59.68.88.25-.29.45-.59.68-.88l.61-.88c.4-.58.76-1.16,1.11-1.75V133c0-1.17,0-2.34,0-3.51-.35-.58-.7-1.17-1.11-1.75l-.62-.88c-.24-.29-.44-.58-.7-.87-.26.29-.47.58-.7.87l-.62.88c-.41.58-.77,1.17-1.11,1.75C403.71,130.64,403.67,131.81,403.69,133Z"/><path class="cls-9" d="M368.68,161.83v17.53c.35.59.71,1.17,1.11,1.76l.61.87c.23.3.44.59.68.88.25-.29.46-.58.68-.88l.61-.87c.41-.59.76-1.17,1.12-1.76V161.83c0-1.17,0-2.34,0-3.5-.34-.59-.7-1.17-1.11-1.76l-.62-.87c-.23-.3-.44-.59-.7-.88-.25.29-.46.58-.7.88l-.62.87c-.41.59-.76,1.17-1.11,1.76C368.71,159.49,368.67,160.66,368.68,161.83Z"/><path class="cls-9" d="M375.45,125.72c.65.41,1.3.76,1.94,1.12h19.44c1.29,0,2.59,0,3.89,0,.64-.34,1.29-.7,1.94-1.1l1-.62c.33-.24.65-.45,1-.7-.32-.26-.64-.47-1-.71l-1-.62c-.65-.4-1.3-.76-1.94-1.1-1.3,0-2.6,0-3.89,0H377.39c-.64.36-1.29.71-1.94,1.12l-1,.61c-.32.22-.65.43-1,.68.32.24.65.45,1,.67Z"/><path class="cls-9" d="M402.66,153.5c-.65-.41-1.3-.77-1.94-1.11-1.3.05-2.6,0-3.89,0H377.39c-.64.35-1.29.7-1.94,1.11l-1,.61c-.32.23-.65.43-1,.68.32.25.65.45,1,.68l1,.61c.65.4,1.3.76,1.94,1.11h19.44c1.29,0,2.59,0,3.89,0,.64-.34,1.29-.7,1.94-1.11l1-.62c.33-.23.65-.44,1-.7-.32-.26-.64-.47-1-.7Z"/><path class="cls-9" d="M323.11,133v17.53c.35.59.7,1.17,1.11,1.75l.61.88c.23.29.43.59.68.88.25-.29.45-.59.68-.88l.61-.88c.4-.58.76-1.16,1.11-1.75V133c0-1.17,0-2.34,0-3.51-.34-.58-.7-1.17-1.11-1.75l-.62-.88c-.23-.29-.44-.58-.7-.87-.26.29-.47.58-.7.87l-.62.88c-.41.58-.77,1.17-1.11,1.75C323.13,130.64,323.09,131.81,323.11,133Z"/><path class="cls-9" d="M323.11,161.83v17.53c.35.59.7,1.17,1.11,1.76l.61.87c.23.3.43.59.68.88.25-.29.45-.58.68-.88l.61-.87c.4-.59.76-1.17,1.11-1.76V161.83c0-1.17,0-2.34,0-3.5-.34-.59-.7-1.17-1.11-1.76l-.62-.87c-.23-.3-.44-.59-.7-.88-.26.29-.47.58-.7.88l-.62.87c-.41.59-.77,1.17-1.11,1.76C323.13,159.49,323.09,160.66,323.11,161.83Z"/><path class="cls-9" d="M329.88,125.72c.65.41,1.29.76,1.94,1.12h19.44c1.29,0,2.59,0,3.88,0,.65-.34,1.3-.7,1.95-1.1l1-.62c.32-.24.65-.45,1-.7-.32-.26-.65-.47-1-.71l-1-.62c-.65-.4-1.3-.76-1.95-1.1-1.29,0-2.59,0-3.88,0H331.82c-.65.36-1.29.71-1.94,1.12l-1,.61c-.33.22-.65.43-1,.68.33.24.65.45,1,.67Z"/><path class="cls-9" d="M357.09,181.58c-.65-.41-1.3-.76-1.95-1.11H335.71c-1.3,0-2.59,0-3.89,0-.65.34-1.29.7-1.94,1.11l-1,.62c-.33.23-.65.44-1,.7.33.26.65.47,1,.7l1,.62c.65.41,1.29.77,1.94,1.11,1.3-.05,2.59,0,3.89,0h19.43c.65-.35,1.3-.71,1.95-1.11l1-.61c.32-.23.65-.43,1-.68-.32-.25-.65-.45-1-.68Z"/><path class="cls-9" d="M302.27,133v17.53c.36.59.71,1.17,1.12,1.75l.61.88c.22.29.43.59.68.88.24-.29.45-.59.68-.88l.61-.88c.4-.58.76-1.16,1.11-1.75V133c0-1.17,0-2.34,0-3.51-.35-.58-.7-1.17-1.11-1.75l-.62-.88c-.24-.29-.45-.58-.7-.87-.26.29-.47.58-.7.87l-.62.88c-.41.58-.77,1.17-1.11,1.75C302.3,130.64,302.26,131.81,302.27,133Z"/><path class="cls-9" d="M302.27,161.83v17.53c.36.59.71,1.17,1.12,1.76l.61.87c.22.3.43.59.68.88.24-.29.45-.58.68-.88l.61-.87c.4-.59.76-1.17,1.11-1.76V161.83c0-1.17,0-2.34,0-3.5-.35-.59-.7-1.17-1.11-1.76l-.62-.87c-.24-.3-.45-.59-.7-.88-.26.29-.47.58-.7.88l-.62.87c-.41.59-.77,1.17-1.11,1.76C302.3,159.49,302.26,160.66,302.27,161.83Z"/></g></g></svg>