<svg width="40" height="40" viewBox="0 0 40 40" fill="none" xmlns="http://www.w3.org/2000/svg">
<path d="M26 24.08C25.24 24.08 24.56 24.38 24.04 24.85L16.91 20.7C16.96 20.47 17 20.24 17 20C17 19.76 16.96 19.53 16.91 19.3L23.96 15.19C24.5 15.69 25.21 16 26 16C26.7956 16 27.5587 15.6839 28.1213 15.1213C28.6839 14.5587 29 13.7956 29 13C29 12.2044 28.6839 11.4413 28.1213 10.8787C27.5587 10.3161 26.7956 10 26 10C25.2044 10 24.4413 10.3161 23.8787 10.8787C23.3161 11.4413 23 12.2044 23 13C23 13.24 23.04 13.47 23.09 13.7L16.04 17.81C15.5 17.31 14.79 17 14 17C13.2044 17 12.4413 17.3161 11.8787 17.8787C11.3161 18.4413 11 19.2044 11 20C11 20.7956 11.3161 21.5587 11.8787 22.1213C12.4413 22.6839 13.2044 23 14 23C14.79 23 15.5 22.69 16.04 22.19L23.16 26.34C23.11 26.55 23.08 26.77 23.08 27C23.08 28.61 24.39 29.91 26 29.91C27.61 29.91 28.92 28.61 28.92 27C28.92 26.2256 28.6124 25.4829 28.0648 24.9352C27.5171 24.3876 26.7744 24.08 26 24.08Z" fill="white" fill-opacity="0.74"/>
</svg>
