<svg width="40" height="40" viewBox="0 0 40 40" fill="none" xmlns="http://www.w3.org/2000/svg">
<path d="M20 36C28.8365 36 36 28.8365 36 20C36 11.1635 28.8365 4 20 4C11.1635 4 4 11.1635 4 20C4 28.8365 11.1635 36 20 36Z" fill="url(#paint0_linear)"/>
<path d="M9.95875 20.7826C11.8291 19.7524 13.917 18.8925 15.8678 18.0282C19.2239 16.6126 22.5934 15.2216 25.9969 13.9265C26.6591 13.7058 27.8489 13.49 27.9655 14.4714C27.9017 15.8604 27.6389 17.2414 27.4586 18.6223C27.0011 21.6591 26.4723 24.6855 25.9566 27.7123C25.7789 28.7205 24.5159 29.2424 23.7078 28.5972C21.7657 27.2854 19.8086 25.9863 17.8913 24.644C17.2632 24.0058 17.8456 23.0894 18.4065 22.6336C20.0061 21.0572 21.7025 19.7179 23.2185 18.06C23.6275 17.0725 22.4192 17.9048 22.0207 18.1598C19.8308 19.6688 17.6945 21.27 15.3857 22.5963C14.2064 23.2455 12.8319 22.6907 11.6531 22.3284C10.5961 21.8908 9.04731 21.45 9.95865 20.7827L9.95875 20.7826Z" fill="white"/>
<defs>
<linearGradient id="paint0_linear" x1="16.0019" y1="5.3344" x2="8.00187" y2="24" gradientUnits="userSpaceOnUse">
<stop stop-color="#37AEE2"/>
<stop offset="1" stop-color="#1E96C8"/>
</linearGradient>
</defs>
</svg>
