<svg width="40" height="40" viewBox="0 0 40 40" fill="none" xmlns="http://www.w3.org/2000/svg">
<path d="M4 20C4 11.1634 11.1634 4 20 4C28.8366 4 36 11.1634 36 20C36 28.8366 28.8366 36 20 36C11.1634 36 4 28.8366 4 20Z" fill="#55ACEE"/>
<path d="M19.5208 17.405L19.5544 17.9586L18.9948 17.8908C16.9579 17.631 15.1784 16.7497 13.6676 15.2695L12.9289 14.5351L12.7387 15.0775C12.3358 16.2864 12.5932 17.5632 13.4325 18.4219C13.8802 18.8964 13.7795 18.9642 13.0073 18.6818C12.7387 18.5914 12.5036 18.5236 12.4812 18.5575C12.4029 18.6366 12.6715 19.6647 12.8841 20.0715C13.1751 20.6364 13.7683 21.1901 14.4174 21.5177L14.9658 21.7776L14.3167 21.7889C13.6899 21.7889 13.6676 21.8002 13.7347 22.0375C13.9585 22.7719 14.8427 23.5515 15.8276 23.8905L16.5214 24.1277L15.9171 24.4893C15.0218 25.009 13.9697 25.3028 12.9177 25.3254C12.4141 25.3367 12 25.3819 12 25.4158C12 25.5288 13.3654 26.1615 14.16 26.4101C16.5438 27.1445 19.3753 26.8281 21.5017 25.574C23.0126 24.6814 24.5235 22.9075 25.2286 21.1901C25.6091 20.2749 25.9896 18.6027 25.9896 17.8005C25.9896 17.2807 26.0232 17.2129 26.6499 16.5915C27.0192 16.2299 27.3662 15.8345 27.4333 15.7215C27.5452 15.5068 27.534 15.5068 26.9633 15.6989C26.012 16.0379 25.8777 15.9927 26.3477 15.4842C26.6947 15.1227 27.1088 14.4673 27.1088 14.2753C27.1088 14.2414 26.9409 14.2979 26.7506 14.3995C26.5492 14.5125 26.1015 14.682 25.7658 14.7837L25.1614 14.9758L24.613 14.6029C24.3108 14.3995 23.8856 14.1736 23.6617 14.1058C23.0909 13.9476 22.218 13.9702 21.7032 14.151C20.3042 14.6594 19.4201 15.9701 19.5208 17.405Z" fill="white"/>
</svg>
